<?xml version="1.0" standalone="no"?>
<!DOCTYPE svg PUBLIC "-//W3C//DTD SVG 20010904//EN"
 "http://www.w3.org/TR/2001/REC-SVG-20010904/DTD/svg10.dtd">
<svg version="1.0" xmlns="http://www.w3.org/2000/svg"
 width="900.000000pt" height="900.000000pt" viewBox="0 0 900.000000 900.000000"
 preserveAspectRatio="xMidYMid meet">
<metadata>
Created by potrace 1.10, written by Peter Selinger 2001-2011
</metadata>
<g transform="translate(0.000000,900.000000) scale(0.100000,-0.100000)"
fill="currentColor" stroke="none">
<path d="M4439 7523 c-36 -32 -89 -78 -118 -103 -30 -25 -61 -52 -70 -61 -38
-37 -221 -166 -361 -255 -189 -119 -574 -293 -740 -334 -32 -8 -103 -28 -175
-49 -16 -5 -66 -16 -110 -26 -44 -9 -108 -23 -142 -31 -34 -8 -76 -14 -94 -14
-17 0 -70 -6 -118 -14 -97 -17 -362 -36 -491 -36 -47 0 -91 -4 -97 -8 -10 -6
-16 -127 -24 -493 -14 -615 -2 -1217 30 -1534 49 -469 125 -820 256 -1180 54
-150 170 -401 234 -505 11 -19 25 -44 30 -55 10 -23 161 -247 171 -255 3 -3
34 -42 68 -87 79 -104 342 -377 354 -365 4 4 9 876 10 1937 l3 1930 875 3
c761 3 892 1 1005 -13 72 -9 153 -23 181 -31 28 -8 61 -14 73 -14 12 0 32 -5
44 -12 12 -6 35 -15 52 -19 86 -22 236 -91 317 -146 28 -18 52 -33 55 -33 30
0 266 -235 318 -315 88 -139 135 -255 182 -455 26 -110 26 -529 0 -645 -27
-119 -80 -282 -98 -300 -5 -5 -9 -15 -9 -22 0 -19 -86 -160 -142 -233 -28 -36
-81 -94 -117 -129 -63 -60 -173 -151 -185 -151 -3 0 -24 -13 -48 -28 -24 -16
-74 -43 -113 -62 -38 -18 -82 -39 -97 -46 -14 -8 -35 -14 -46 -14 -11 0 -25
-7 -32 -15 -15 -18 -7 -32 87 -142 37 -44 106 -127 153 -183 47 -56 114 -137
150 -180 36 -42 90 -107 120 -144 30 -38 64 -78 75 -90 11 -13 45 -53 75 -90
30 -38 64 -78 75 -90 11 -12 36 -43 55 -69 23 -31 43 -46 58 -47 12 0 22 3 22
8 1 4 28 36 61 72 205 218 417 556 550 873 93 223 111 275 183 537 60 220 126
616 140 850 3 47 11 128 17 180 15 123 15 1778 0 1793 -6 6 -34 12 -63 13 -29
2 -145 8 -258 14 -113 6 -241 18 -286 26 -44 8 -93 14 -108 14 -16 0 -60 7
-100 15 -39 9 -105 23 -146 32 -130 27 -455 125 -509 153 -9 5 -56 25 -104 45
-203 84 -470 238 -655 377 -67 51 -230 184 -247 202 -6 6 -34 33 -61 59 l-51
48 -64 -58z"/>
<path d="M4102 4553 l3 -598 175 0 c177 0 321 15 395 41 23 8 46 14 53 14 6 0
42 14 78 31 78 37 168 124 203 195 13 27 29 60 36 74 17 35 39 173 39 245 1
232 -111 438 -279 513 -137 61 -267 82 -503 82 l-202 0 2 -597z"/>
<path d="M4107 3184 c-4 -4 -7 -398 -7 -875 l0 -867 48 -22 c72 -34 103 -47
147 -63 61 -23 126 -48 168 -65 34 -14 41 -14 77 1 22 10 59 24 83 33 23 9 57
22 75 30 18 8 37 14 42 14 6 0 40 14 77 31 38 17 82 37 98 44 112 50 365 178
375 189 9 12 -8 41 -97 156 -59 78 -150 196 -201 263 -51 67 -101 131 -110
142 -25 29 -106 133 -213 273 -52 68 -139 181 -194 252 -55 71 -156 202 -224
292 -147 194 -136 180 -144 172z"/>
</g>
</svg>
