<?xml version="1.0" standalone="no"?>
<!DOCTYPE svg PUBLIC "-//W3C//DTD SVG 20010904//EN"
 "http://www.w3.org/TR/2001/REC-SVG-20010904/DTD/svg10.dtd">
<svg version="1.0" xmlns="http://www.w3.org/2000/svg"
 width="4689.000000pt" height="4689.000000pt" viewBox="0 0 4689.000000 4689.000000"
 preserveAspectRatio="xMidYMid meet">
<metadata>
Created by potrace 1.10, written by Peter Selinger 2001-2011
</metadata>
<g transform="translate(0.000000,4689.000000) scale(0.100000,-0.100000)"
fill="#ffffff" stroke="none">
<path d="M6855 44843 c-28 -24 -66 -59 -85 -76 -84 -77 -312 -251 -382 -292
-9 -5 -48 -29 -85 -51 -174 -106 -347 -190 -533 -259 -19 -7 -53 -19 -75 -28
-111 -41 -311 -95 -450 -121 -176 -33 -214 -38 -305 -47 -52 -5 -135 -13 -185
-19 -49 -5 -149 -10 -221 -10 -101 0 -134 -3 -143 -14 -18 -21 -20 -1449 -3
-1696 25 -366 65 -666 118 -900 38 -167 88 -344 121 -435 9 -22 21 -57 29 -77
45 -121 53 -140 118 -281 25 -54 46 -100 46 -102 0 -2 20 -38 45 -79 25 -42
45 -79 45 -81 0 -3 20 -34 45 -71 25 -36 45 -67 45 -70 0 -3 46 -67 103 -142
112 -150 377 -429 396 -418 8 5 11 484 11 1887 l0 1879 870 0 c733 0 887 -2
973 -15 241 -37 359 -70 532 -152 42 -19 55 -28 170 -102 151 -98 320 -293
385 -441 4 -8 14 -30 23 -48 9 -19 17 -40 17 -47 0 -8 6 -29 14 -47 46 -107
81 -359 73 -527 -7 -156 -32 -311 -68 -416 -6 -16 -14 -44 -18 -60 -4 -17 -13
-39 -18 -50 -6 -11 -19 -38 -29 -60 -53 -112 -157 -257 -251 -346 -54 -52
-215 -179 -227 -179 -3 0 -27 -13 -53 -28 -43 -25 -169 -81 -215 -96 -10 -3
-18 -13 -18 -23 0 -24 786 -967 808 -971 19 -3 45 22 147 144 115 136 167 209
274 384 102 168 185 341 257 533 8 20 20 54 28 75 16 42 72 224 81 262 3 14
16 68 29 120 55 220 100 496 116 720 5 63 14 160 20 215 12 107 16 1709 4
1739 -5 14 -26 16 -143 16 -75 0 -176 5 -226 10 -49 6 -133 14 -185 19 -219
21 -603 106 -748 167 -18 8 -37 14 -43 14 -6 0 -25 6 -42 14 -18 7 -52 21 -77
31 -103 41 -247 110 -345 165 -87 48 -212 125 -252 154 -23 17 -70 51 -105 76
-62 45 -246 198 -303 253 -51 49 -56 49 -110 0z"/>
<path d="M6535 42519 c-3 -8 -4 -273 -3 -589 l3 -575 205 2 c335 5 506 56 620
187 83 95 130 238 130 396 0 245 -112 440 -290 508 -141 53 -252 72 -475 79
-153 5 -185 4 -190 -8z"/>
<path d="M6530 39761 c0 -659 3 -841 13 -848 11 -9 128 -58 212 -90 22 -8 58
-23 79 -31 51 -21 102 -21 154 1 23 9 59 23 80 31 196 74 577 253 606 285 15
17 13 21 -22 62 -21 24 -80 100 -132 169 -52 69 -96 127 -100 130 -3 3 -18 23
-35 45 -16 22 -32 42 -35 45 -4 3 -54 68 -113 145 -171 224 -297 388 -315 410
-9 11 -30 38 -46 60 -17 22 -33 42 -36 45 -10 8 -222 286 -255 335 -16 24 -36
44 -42 44 -10 1 -13 -173 -13 -838z"/>
<path d="M6142 36783 l3 -1038 205 0 205 0 3 50 c4 79 7 81 57 37 114 -100
288 -145 455 -118 98 17 134 29 210 72 130 75 231 207 281 369 28 90 30 318 4
398 -75 228 -214 374 -419 441 -70 23 -283 22 -351 -1 -73 -24 -125 -49 -172
-84 -22 -17 -46 -28 -52 -25 -8 5 -11 147 -11 472 l0 464 -210 0 -210 0 2
-1037z m819 -157 c109 -49 168 -142 169 -263 0 -118 -46 -206 -138 -259 -42
-25 -56 -28 -142 -28 -81 0 -102 4 -139 24 -104 56 -151 137 -151 260 0 95 21
148 82 206 88 85 211 108 319 60z"/>
<path d="M7950 37738 c-41 -9 -107 -51 -138 -88 -56 -66 -71 -189 -32 -265 48
-95 120 -138 231 -138 69 -1 81 2 127 32 195 125 153 397 -71 457 -59 16 -56
15 -117 2z"/>
<path d="M2812 36738 l3 -993 220 0 220 0 5 380 c3 209 9 379 13 378 5 -1 37
-37 71 -80 57 -72 107 -137 374 -486 51 -67 109 -139 128 -159 l35 -38 270 0
c238 0 270 2 276 16 3 9 1 19 -4 23 -21 13 -643 767 -643 779 0 7 12 17 28 24
83 33 123 60 191 128 79 78 108 123 144 225 18 51 21 82 21 210 0 131 -3 157
-23 210 -33 89 -75 156 -123 201 -51 47 -151 114 -170 114 -8 0 -23 7 -34 15
-10 8 -28 15 -39 15 -11 0 -38 7 -60 15 -32 11 -122 14 -473 15 l-432 0 2
-992z m693 617 c22 -8 47 -15 55 -15 21 0 81 -57 105 -100 28 -49 29 -212 1
-255 -59 -93 -113 -120 -259 -130 -162 -11 -147 -37 -147 254 0 136 3 251 7
254 12 13 197 6 238 -8z"/>
<path d="M4995 36995 c-22 -8 -48 -15 -58 -15 -11 0 -31 -6 -45 -14 -15 -7
-49 -24 -75 -37 -79 -39 -90 -46 -147 -95 -94 -80 -152 -167 -196 -294 -26
-77 -26 -291 1 -370 28 -83 55 -136 105 -198 45 -56 146 -145 185 -163 11 -5
27 -13 35 -18 186 -110 557 -114 769 -8 137 70 258 188 309 302 43 97 52 144
52 272 0 180 -37 285 -140 405 -46 53 -163 143 -220 169 -19 8 -51 23 -70 31
-82 37 -154 48 -311 48 -108 -1 -166 -5 -194 -15z m320 -371 c105 -50 165
-148 165 -268 0 -113 -54 -202 -160 -261 -53 -29 -208 -27 -267 4 -52 28 -96
76 -123 136 -28 60 -28 185 0 246 64 145 242 210 385 143z"/>
<path d="M10505 36993 c-122 -37 -196 -83 -296 -182 -76 -75 -103 -111 -129
-165 -70 -151 -88 -303 -51 -442 11 -40 24 -80 29 -90 38 -76 52 -99 93 -151
70 -90 191 -178 303 -219 23 -9 86 -22 141 -30 243 -34 481 34 631 181 81 79
107 115 96 133 -11 16 -262 142 -286 142 -10 0 -36 -16 -57 -35 -21 -19 -61
-46 -88 -60 -43 -21 -63 -25 -145 -25 -103 0 -141 11 -208 63 -43 33 -80 107
-76 152 l3 30 445 5 445 5 3 73 c2 43 -3 98 -13 133 -8 33 -15 67 -15 75 0 40
-89 193 -145 249 -54 55 -208 145 -248 145 -6 0 -30 7 -52 15 -56 20 -311 19
-380 -2z m284 -270 c61 -19 108 -64 132 -126 15 -38 16 -47 4 -57 -15 -13
-438 -11 -451 2 -13 13 19 91 51 125 36 39 114 72 171 72 23 1 65 -6 93 -16z"/>
<path d="M7795 36968 c-3 -7 -4 -285 -3 -618 l3 -605 199 -3 c110 -1 203 1
208 6 6 6 11 759 8 1220 0 9 -48 12 -205 12 -155 0 -207 -3 -210 -12z"/>
<path d="M8466 36972 c-2 -4 47 -75 110 -157 63 -83 162 -212 220 -288 l106
-138 -39 -48 c-49 -63 -153 -190 -174 -216 -81 -97 -180 -218 -209 -255 -19
-25 -47 -58 -62 -75 -16 -16 -27 -34 -25 -40 2 -6 90 -11 250 -13 l245 -2 39
47 c21 26 43 54 50 63 7 8 34 43 61 76 27 34 64 83 82 108 19 25 37 46 40 46
10 0 79 -82 174 -208 44 -56 88 -109 100 -117 16 -12 65 -15 251 -15 126 0
236 4 244 9 11 7 5 20 -30 62 -24 30 -46 56 -50 59 -4 4 -67 81 -154 190 -47
59 -109 135 -116 140 -6 5 -118 144 -133 165 -13 17 -1 56 27 85 12 14 72 90
132 170 60 80 111 147 114 150 4 3 19 23 36 45 16 22 32 42 35 45 21 17 79
104 74 111 -3 5 -113 9 -244 9 l-240 0 -101 -135 c-66 -88 -108 -135 -118
-133 -8 2 -32 26 -51 55 -20 28 -48 66 -62 85 -15 18 -42 53 -60 78 l-34 45
-241 3 c-133 1 -244 -1 -247 -6z"/>
</g>
</svg>
