<?xml version="1.0" encoding="utf-8"?>
<svg viewBox="99.278 160.65 584.838 120.938" width="584.838" height="120.938" xmlns="http://www.w3.org/2000/svg">
  <g transform="matrix(0.04481600224971772, 0, 0, -0.04481600224971772, 98.33489373825333, 441.1976078927159)" fill="#ffffff" stroke="none">
    <path d="M 2885.788 5922 C 2885.788 5914 2730.788 5796 2690.788 5773 C 2515.788 5674 2352.788 5628 2093.788 5605 L 2015.788 5598 L 2014.788 5416 C 2012.788 4930 2018.788 4825 2056.788 4670 C 2062.788 4645 2071.788 4609 2075.788 4590 C 2095.788 4499 2167.788 4341 2232.788 4243 C 2281.788 4170 2376.788 4065 2394.788 4065 C 2408.788 4065 2411.788 4136 2415.788 4725 L 2420.788 5385 L 2748.788 5388 C 3044.788 5390 3082.788 5388 3148.788 5371 C 3295.788 5332 3390.788 5267 3451.788 5163 C 3513.788 5059 3532.788 4894 3496.788 4769 C 3475.788 4696 3467.788 4679 3412.788 4602 C 3374.788 4550 3264.788 4467 3221.788 4459 C 3210.788 4457 3200.788 4450 3198.788 4444 C 3195.788 4435 3458.788 4109 3474.788 4102 C 3487.788 4097 3513.788 4125 3573.788 4207 C 3688.788 4365 3756.788 4539 3799.788 4785 C 3818.788 4895 3831.788 5298 3820.788 5471 L 3813.788 5597 L 3707.788 5609 C 3464.788 5638 3401.788 5652 3275.788 5707 C 3172.788 5752 3058.788 5823 2983.788 5889 C 2954.788 5915 2927.788 5930 2911.788 5930 C 2897.788 5930 2885.788 5926 2885.788 5922 Z" style="stroke-miterlimit: 7.59; stroke: rgb(16, 0, 253); fill: rgb(49, 49, 49);"/>
    <path d="M 5525.788 5660 C 5525.788 5649 5525.788 5224 5525.788 4715 C 5525.788 4206 5525.788 3785 5525.788 3780 C 5525.788 3773 5590.788 3770 5713.788 3772 L 5900.788 3775 L 5903.788 3805 C 5907.788 3851 5915.788 3880 5923.788 3880 C 5927.788 3880 5947.788 3865 5967.788 3847 C 6111.788 3722 6362.788 3703 6548.788 3803 C 6622.788 3843 6669.788 3885 6723.788 3958 C 6816.788 4086 6845.788 4175 6845.788 4340 C 6845.788 4505 6816.788 4594 6722.788 4723 C 6649.788 4823 6557.788 4887 6436.788 4924 C 6360.788 4947 6198.788 4945 6119.788 4921 C 6053.788 4900 5966.788 4856 5949.788 4834 C 5917.788 4794 5915.788 4818 5915.788 5234 C 5915.788 5462 5912.788 5655 5909.788 5664 C 5904.788 5678 5877.788 5680 5714.788 5680 C 5532.788 5680 5525.788 5679 5525.788 5660 Z M 6257.788 4593 C 6321.788 4568 6363.788 4532 6396.788 4476 C 6421.788 4431 6425.788 4415 6425.788 4341 C 6425.788 4239 6404.788 4187 6342.788 4136 C 6218.788 4035 6037.788 4058 5949.788 4186 C 5910.788 4242 5910.788 4243 5910.788 4340 C 5910.788 4437 5910.788 4438 5948.788 4493 C 6018.788 4594 6148.788 4636 6257.788 4593 Z" style="fill: rgb(49, 49, 49);"/>
    <path d="M 7164.788 5604 C 7150.788 5601 7114.788 5577 7084.788 5551 C 7043.788 5514 7027.788 5491 7016.788 5454 C 6981.788 5337 7027.788 5230 7136.788 5175 C 7263.788 5110 7414.788 5179 7459.788 5322 C 7476.788 5376 7476.788 5382 7459.788 5438 C 7439.788 5505 7428.788 5521 7368.788 5568 C 7331.788 5597 7317.788 5602 7258.788 5605 C 7221.788 5607 7178.788 5606 7164.788 5604 Z" style="fill: rgb(49, 49, 49);"/>
    <path d="M 2801.788 5092 C 2792.788 5090 2785.788 5083 2785.788 5077 C 2784.788 5070 2785.788 4980 2785.788 4875 C 2786.788 4739 2789.788 4684 2798.788 4678 C 2834.788 4655 3006.788 4685 3057.788 4723 C 3102.788 4756 3125.788 4812 3125.788 4886 C 3125.788 4979 3093.788 5037 3025.788 5068 C 2993.788 5082 2838.788 5099 2801.788 5092 Z" style="stroke-miterlimit: 7.59; stroke: rgb(112, 106, 215); fill: rgb(49, 49, 49);"/>
    <path d="M 4504.788 4935 C 4501.788 4933 4475.788 4924 4445.788 4916 C 4308.788 4879 4223.788 4830 4130.788 4736 C 3989.788 4594 3936.788 4396 3984.788 4200 C 4001.788 4131 4009.788 4108 4037.788 4060 C 4041.788 4052 4048.788 4038 4052.788 4030 C 4073.788 3985 4193.788 3870 4249.788 3841 C 4272.788 3829 4297.788 3815 4305.788 3811 C 4415.788 3748 4697.788 3717 4821.788 3755 C 4848.788 3763 4878.788 3770 4887.788 3770 C 4903.788 3770 5013.788 3820 5072.788 3854 C 5135.788 3890 5257.788 4028 5281.788 4090 C 5284.788 4098 5292.788 4119 5299.788 4135 C 5306.788 4152 5318.788 4204 5325.788 4253 C 5371.788 4560 5178.788 4834 4853.788 4920 C 4798.788 4935 4746.788 4940 4644.788 4940 C 4569.788 4940 4506.788 4938 4504.788 4935 Z M 4751.788 4589 C 4852.788 4544 4915.788 4448 4915.788 4340 C 4915.788 4227 4843.788 4124 4740.788 4087 C 4565.788 4026 4385.788 4154 4385.788 4340 C 4385.788 4528 4583.788 4663 4751.788 4589 Z" style="fill: rgb(49, 49, 49);"/>
    <path d="M 9530.788 4923 C 9404.788 4884 9274.788 4797 9202.788 4702 C 9163.788 4651 9149.788 4629 9112.788 4556 C 9095.788 4521 9075.788 4407 9075.788 4340 C 9075.788 4070 9258.788 3838 9533.788 3759 C 9626.788 3732 9789.788 3733 9902.788 3761 C 9949.788 3772 9994.788 3785 10003.788 3789 C 10013.788 3794 10042.788 3809 10069.788 3821 C 10127.788 3850 10208.788 3920 10252.788 3983 C 10282.788 4025 10283.788 4028 10267.788 4042 C 10250.788 4057 10026.788 4170 10013.788 4170 C 10009.788 4170 9977.788 4148 9941.788 4121 C 9859.788 4059 9773.788 4039 9674.788 4060 C 9571.788 4082 9486.788 4167 9485.788 4248 L 9485.788 4280 L 9883.788 4280 C 10101.788 4280 10285.788 4284 10291.788 4288 C 10311.788 4301 10313.788 4326 10303.788 4421 C 10286.788 4592 10240.788 4689 10125.788 4797 C 10073.788 4846 9966.788 4901 9879.788 4924 C 9800.788 4945 9600.788 4944 9530.788 4923 Z M 9781.788 4678 C 9840.788 4662 9902.788 4602 9911.788 4553 C 9916.788 4528 9914.788 4515 9904.788 4509 C 9880.788 4494 9532.788 4498 9511.788 4513 C 9468.788 4544 9547.788 4649 9633.788 4676 C 9683.788 4692 9726.788 4692 9781.788 4678 Z" style="fill: rgb(49, 49, 49);"/>
    <path d="M 7040.788 4901 C 7034.788 4895 7032.788 4688 7035.788 4333 L 7040.788 3775 L 7230.788 3775 L 7420.788 3775 L 7420.788 4340 L 7420.788 4905 L 7235.788 4908 C 7124.788 4909 7045.788 4906 7040.788 4901 Z" style="fill: rgb(49, 49, 49);"/>
    <path d="M 7656.788 4898 C 7656.788 4891 7696.788 4833 7746.788 4770 C 7966.788 4487 8045.788 4380 8045.788 4364 C 8045.788 4355 8030.788 4331 8013.788 4311 C 7995.788 4290 7955.788 4243 7925.788 4205 C 7895.788 4168 7853.788 4116 7831.788 4091 C 7776.788 4025 7765.788 4011 7720.788 3955 C 7698.788 3928 7658.788 3879 7632.788 3848 C 7605.788 3817 7586.788 3786 7590.788 3781 C 7594.788 3774 7673.788 3770 7820.788 3770 L 8043.788 3770 L 8076.788 3813 C 8095.788 3836 8112.788 3857 8115.788 3860 C 8119.788 3863 8158.788 3913 8204.788 3973 C 8249.788 4032 8291.788 4080 8296.788 4080 C 8301.788 4080 8332.788 4045 8365.788 4003 C 8399.788 3960 8434.788 3916 8443.788 3905 C 8452.788 3894 8475.788 3865 8494.788 3840 C 8513.788 3815 8535.788 3789 8544.788 3783 C 8564.788 3766 9005.788 3764 9005.788 3781 C 9005.788 3793 8977.788 3831 8865.788 3966 C 8824.788 4016 8772.788 4078 8750.788 4105 C 8728.788 4132 8699.788 4168 8685.788 4185 C 8671.788 4203 8634.788 4249 8602.788 4288 C 8552.788 4349 8546.788 4361 8554.788 4381 C 8560.788 4394 8603.788 4455 8650.788 4515 C 8851.788 4773 8943.788 4898 8938.788 4904 C 8934.788 4907 8833.788 4910 8713.788 4910 L 8495.788 4910 L 8403.788 4785 C 8352.788 4717 8304.788 4661 8298.788 4660 C 8291.788 4660 8244.788 4716 8193.788 4785 L 8100.788 4909 L 7878.788 4910 C 7706.788 4910 7655.788 4907 7656.788 4898 Z" style="fill: rgb(49, 49, 49);"/>
    <path d="M 2783.788 4093 L 2786.788 3805 L 2827.788 3785 C 2889.788 3755 2955.788 3760 3040.788 3800 C 3079.788 3818 3127.788 3840 3147.788 3849 C 3168.788 3858 3185.788 3871 3185.788 3878 C 3185.788 3889 3044.788 4084 3025.788 4100 C 3022.788 4103 3006.788 4123 2989.788 4145 C 2973.788 4167 2955.788 4190 2949.788 4197 C 2943.788 4203 2909.788 4247 2874.788 4294 C 2839.788 4341 2804.788 4380 2795.788 4380 C 2782.788 4380 2780.788 4346 2783.788 4093 Z" style="stroke-miterlimit: 7.59; stroke: rgb(16, 0, 253); fill: rgb(49, 49, 49);"/>
  </g>
</svg>